<svg width="69" height="69" viewBox="0 0 69 69" fill="none" xmlns="http://www.w3.org/2000/svg">
<g id="arrow" filter="url(#filter0_d_857_459)">
<g id="icons Q2">
<path id="Vector" d="M32.5 3.00029C27.061 3.00029 21.7442 4.61313 17.2218 7.63487C12.6995 10.6566 9.17474 14.9515 7.09333 19.9765C5.01192 25.0015 4.46732 30.5308 5.52842 35.8653C6.58951 41.1997 9.20863 46.0998 13.0546 49.9457C16.9005 53.7917 21.8006 56.4108 27.135 57.4719C32.4695 58.533 37.9988 57.9884 43.0238 55.907C48.0488 53.8256 52.3437 50.3008 55.3654 45.7785C58.3872 41.2561 60 35.9393 60 30.5003C60.0166 26.8843 59.3166 23.3009 57.9404 19.9569C56.5643 16.613 54.5393 13.5749 51.9823 11.018C49.4254 8.46104 46.3873 6.43603 43.0434 5.05989C39.6994 3.68375 36.116 2.98374 32.5 3.00029ZM32.875 39.8753L26.75 46.0003C26.5275 46.2428 26.2571 46.4364 25.9558 46.5688C25.6546 46.7012 25.3291 46.7696 25 46.7696C24.6709 46.7696 24.3454 46.7012 24.0442 46.5688C23.7429 46.4364 23.4725 46.2428 23.25 46.0003L17.125 39.8753C16.6739 39.4512 16.3791 38.8872 16.2883 38.2747C16.1976 37.6622 16.3162 37.037 16.625 36.5003C16.8403 36.1968 17.1206 35.9453 17.4455 35.764C17.7704 35.5826 18.1317 35.4761 18.503 35.4522C18.8742 35.4282 19.2462 35.4874 19.5917 35.6255C19.9372 35.7636 20.2475 35.977 20.5 36.2503L22.5 38.2503V19.2503C22.5 18.5872 22.7634 17.9514 23.2322 17.4825C23.7011 17.0137 24.337 16.7503 25 16.7503C25.6631 16.7503 26.2989 17.0137 26.7678 17.4825C27.2366 17.9514 27.5 18.5872 27.5 19.2503V38.2503L29.5 36.2503C29.7525 35.977 30.0628 35.7636 30.4083 35.6255C30.7538 35.4874 31.1258 35.4282 31.4971 35.4522C31.8684 35.4761 32.2296 35.5826 32.5545 35.764C32.8794 35.9453 33.1597 36.1968 33.375 36.5003C33.6838 37.037 33.8024 37.6622 33.7117 38.2747C33.6209 38.8872 33.3261 39.4512 32.875 39.8753ZM48.375 24.5003C48.1597 24.8037 47.8794 25.0553 47.5545 25.2366C47.2296 25.4179 46.8684 25.5245 46.4971 25.5484C46.1258 25.5724 45.7538 25.5132 45.4083 25.3751C45.0628 25.237 44.7525 25.0235 44.5 24.7503L42.5 22.7503V41.7503C42.5 42.4133 42.2366 43.0492 41.7678 43.5181C41.2989 43.9869 40.6631 44.2503 40 44.2503C39.337 44.2503 38.7011 43.9869 38.2322 43.5181C37.7634 43.0492 37.5 42.4133 37.5 41.7503V22.7503L35.5 24.7503C35.2475 25.0235 34.9372 25.237 34.5917 25.3751C34.2462 25.5132 33.8742 25.5724 33.503 25.5484C33.1317 25.5245 32.7704 25.4179 32.4455 25.2366C32.1206 25.0553 31.8403 24.8037 31.625 24.5003C31.2926 23.9704 31.1603 23.3392 31.2519 22.7205C31.3436 22.1017 31.6532 21.536 32.125 21.1253L38.25 15.0003C38.4725 14.7578 38.7429 14.5642 39.0442 14.4318C39.3454 14.2993 39.6709 14.2309 40 14.2309C40.3291 14.2309 40.6546 14.2993 40.9558 14.4318C41.2571 14.5642 41.5275 14.7578 41.75 15.0003L47.875 21.1253C48.3468 21.536 48.6564 22.1017 48.7481 22.7205C48.8398 23.3392 48.7075 23.9704 48.375 24.5003Z" fill="url(#paint0_linear_857_459)"/>
</g>
</g>
<defs>
<filter id="filter0_d_857_459" x="0.2" y="0.2" width="68.6" height="68.6005" filterUnits="userSpaceOnUse" color-interpolation-filters="sRGB">
<feFlood flood-opacity="0" result="BackgroundImageFix"/>
<feColorMatrix in="SourceAlpha" type="matrix" values="0 0 0 0 0 0 0 0 0 0 0 0 0 0 0 0 0 0 127 0" result="hardAlpha"/>
<feOffset dx="2" dy="4"/>
<feGaussianBlur stdDeviation="3.4"/>
<feComposite in2="hardAlpha" operator="out"/>
<feColorMatrix type="matrix" values="0 0 0 0 0 0 0 0 0 0 0 0 0 0 0 0 0 0 1 0"/>
<feBlend mode="normal" in2="BackgroundImageFix" result="effect1_dropShadow_857_459"/>
<feBlend mode="normal" in="SourceGraphic" in2="effect1_dropShadow_857_459" result="shape"/>
</filter>
<linearGradient id="paint0_linear_857_459" x1="32.5002" y1="3" x2="32.5002" y2="58.0003" gradientUnits="userSpaceOnUse">
<stop stop-color="#00FFFF"/>
<stop offset="1" stop-color="#02BDE8"/>
</linearGradient>
</defs>
</svg>
