<svg width="73" height="73" viewBox="0 0 73 73" fill="none" xmlns="http://www.w3.org/2000/svg">
<g id="dollar">
<g id="dollar_2">
<path id="Vector" fill-rule="evenodd" clip-rule="evenodd" d="M39.05 23.75C39.05 22.3417 37.9084 21.2 36.5 21.2C35.0916 21.2 33.95 22.3417 33.95 23.75V24.0085C29.8818 24.8701 27.2563 27.794 27.2563 31.4C27.2563 35.006 29.8818 37.9298 33.95 38.7914V43.6119C32.7859 43.1172 31.9585 42.3749 31.9138 42.3326C30.9169 41.3511 29.3131 41.3557 28.322 42.3469C27.3261 43.3427 27.3261 44.9573 28.3219 45.9531C28.9907 46.6209 29.796 47.1723 30.613 47.6389C31.4803 48.1346 32.61 48.6469 33.95 48.957V49.25C33.95 50.6584 35.0916 51.8 36.5 51.8C37.9084 51.8 39.05 50.6584 39.05 49.25V48.9914C43.1183 48.1298 45.7437 45.206 45.7437 41.6C45.7437 37.994 43.1183 35.0702 39.05 34.2086V29.2705C40.2554 29.7144 40.7904 30.3319 40.8567 30.4085C41.7023 31.5025 43.2733 31.7267 44.3907 30.9007C45.5232 30.0636 45.7629 28.4669 44.9257 27.3343C44.9257 27.3343 44.927 27.3362 44.9239 27.332C44.761 27.1125 44.5901 26.9158 44.2844 26.6198C43.9225 26.2693 43.4029 25.8324 42.711 25.4053C41.7823 24.8317 40.567 24.2912 39.05 23.992V23.75ZM11 36.5C11 22.4167 22.4167 11 36.5 11C50.5831 11 62 22.4167 62 36.5C62 50.5831 50.5831 62 36.5 62C22.4167 62 11 50.5831 11 36.5Z" fill="url(#paint0_linear_857_484)"/>
<path id="Vector_2" fill-rule="evenodd" clip-rule="evenodd" d="M39.37 39.6764C39.2247 39.592 39.0508 39.7031 39.0508 39.8714V43.3285C39.0508 43.4968 39.2247 43.608 39.37 43.5233C40.3768 42.9381 40.6443 42.0843 40.6443 41.5998C40.6443 41.1156 40.3768 40.2616 39.37 39.6764Z" fill="url(#paint1_linear_857_484)"/>
<path id="Vector_3" fill-rule="evenodd" clip-rule="evenodd" d="M33.9492 29.7161C33.9492 29.5268 33.7536 29.4019 33.5915 29.4992C32.6163 30.0835 32.3555 30.9218 32.3555 31.3999C32.3555 31.878 32.6163 32.7162 33.5915 33.3006C33.7536 33.3978 33.9492 33.2728 33.9492 33.0836V29.7161Z" fill="url(#paint2_linear_857_484)"/>
</g>
<g id="dollar_3" style="mix-blend-mode:color-dodge" opacity="0.57" filter="url(#filter0_f_857_484)">
<path id="Vector_4" fill-rule="evenodd" clip-rule="evenodd" d="M39.05 23.75C39.05 22.3417 37.9084 21.2 36.5 21.2C35.0916 21.2 33.95 22.3417 33.95 23.75V24.0085C29.8818 24.8701 27.2563 27.794 27.2563 31.4C27.2563 35.006 29.8818 37.9298 33.95 38.7914V43.6119C32.7859 43.1172 31.9585 42.3749 31.9138 42.3326C30.9169 41.3511 29.3131 41.3557 28.322 42.3469C27.3261 43.3427 27.3261 44.9573 28.3219 45.9531C28.9907 46.6209 29.796 47.1723 30.613 47.6389C31.4803 48.1346 32.61 48.6469 33.95 48.957V49.25C33.95 50.6584 35.0916 51.8 36.5 51.8C37.9084 51.8 39.05 50.6584 39.05 49.25V48.9914C43.1183 48.1298 45.7437 45.206 45.7437 41.6C45.7437 37.994 43.1183 35.0702 39.05 34.2086V29.2705C40.2554 29.7144 40.7904 30.3319 40.8567 30.4085C41.7023 31.5025 43.2733 31.7267 44.3907 30.9007C45.5232 30.0636 45.7629 28.4669 44.9257 27.3343C44.9257 27.3343 44.927 27.3362 44.9239 27.332C44.761 27.1125 44.5901 26.9158 44.2844 26.6198C43.9225 26.2693 43.4029 25.8324 42.711 25.4053C41.7823 24.8317 40.567 24.2912 39.05 23.992V23.75ZM11 36.5C11 22.4167 22.4167 11 36.5 11C50.5831 11 62 22.4167 62 36.5C62 50.5831 50.5831 62 36.5 62C22.4167 62 11 50.5831 11 36.5Z" fill="url(#paint3_linear_857_484)"/>
<path id="Vector_5" fill-rule="evenodd" clip-rule="evenodd" d="M39.37 39.6764C39.2247 39.592 39.0508 39.7031 39.0508 39.8714V43.3285C39.0508 43.4968 39.2247 43.608 39.37 43.5233C40.3768 42.9381 40.6443 42.0843 40.6443 41.5998C40.6443 41.1156 40.3768 40.2616 39.37 39.6764Z" fill="url(#paint4_linear_857_484)"/>
<path id="Vector_6" fill-rule="evenodd" clip-rule="evenodd" d="M33.9492 29.7161C33.9492 29.5268 33.7536 29.4019 33.5915 29.4992C32.6163 30.0835 32.3555 30.9218 32.3555 31.3999C32.3555 31.878 32.6163 32.7162 33.5915 33.3006C33.7536 33.3978 33.9492 33.2728 33.9492 33.0836V29.7161Z" fill="url(#paint5_linear_857_484)"/>
</g>
</g>
<defs>
<filter id="filter0_f_857_484" x="0.1" y="0.1" width="72.8" height="72.8" filterUnits="userSpaceOnUse" color-interpolation-filters="sRGB">
<feFlood flood-opacity="0" result="BackgroundImageFix"/>
<feBlend mode="normal" in="SourceGraphic" in2="BackgroundImageFix" result="shape"/>
<feGaussianBlur stdDeviation="5.45" result="effect1_foregroundBlur_857_484"/>
</filter>
<linearGradient id="paint0_linear_857_484" x1="36.5" y1="11" x2="36.5" y2="62" gradientUnits="userSpaceOnUse">
<stop offset="0.02" stop-color="#00FFFF"/>
<stop offset="1" stop-color="#004D66"/>
</linearGradient>
<linearGradient id="paint1_linear_857_484" x1="39.8475" y1="39.6475" x2="39.8475" y2="43.5523" gradientUnits="userSpaceOnUse">
<stop offset="0.02" stop-color="#00FFFF"/>
<stop offset="1" stop-color="#004D66"/>
</linearGradient>
<linearGradient id="paint2_linear_857_484" x1="33.1523" y1="29.4653" x2="33.1523" y2="33.3344" gradientUnits="userSpaceOnUse">
<stop offset="0.02" stop-color="#00FFFF"/>
<stop offset="1" stop-color="#004D66"/>
</linearGradient>
<linearGradient id="paint3_linear_857_484" x1="36.5" y1="11" x2="36.5" y2="62" gradientUnits="userSpaceOnUse">
<stop offset="0.02" stop-color="#00FFFF"/>
<stop offset="1" stop-color="#004D66"/>
</linearGradient>
<linearGradient id="paint4_linear_857_484" x1="39.8475" y1="39.6475" x2="39.8475" y2="43.5523" gradientUnits="userSpaceOnUse">
<stop offset="0.02" stop-color="#00FFFF"/>
<stop offset="1" stop-color="#004D66"/>
</linearGradient>
<linearGradient id="paint5_linear_857_484" x1="33.1523" y1="29.4653" x2="33.1523" y2="33.3344" gradientUnits="userSpaceOnUse">
<stop offset="0.02" stop-color="#00FFFF"/>
<stop offset="1" stop-color="#004D66"/>
</linearGradient>
</defs>
</svg>
